<svg xmlns="http://www.w3.org/2000/svg" version="1.1" xmlns:xlink="http://www.w3.org/1999/xlink" xmlns:svgjs="http://svgjs.dev/svgjs" width="100%" height="100%" viewBox="0 0 1000 600"><rect width="1000" height="600" x="0" y="0" fill="#654fc2"/><g><circle r="166.66666666666666" cx="314.91958109537757" cy="337.1418389778721" fill="#3d155f" transform="matrix(0.8431534846055531,0,0,0.8431534846055531,0,15.737668412829976)"/><path d="M273.56542641740003 412.14184631907847L273.56542641740003 262.1418508603846L355.20232870771696 262.1418508603846L355.20232870771696 278.0049456182187L291.3630449261895 278.0049456182187L291.3630449261895 327.08232508476357L349.84518601276363 327.08232508476357L349.84518601276363 342.9156579387368L291.3630449261895 342.9156579387368L291.3630449261895 396.27875156124435L356.27375724670765 396.27875156124435L356.27375724670765 412.14184631907847L273.56542641740003 412.14184631907847Z " fill="#f8f7fd" transform="matrix(0.8431534846055531,0,0,0.8431534846055531,0,15.737668412829976)"/><path d="M564.9195905296951 409.66679458169665L564.9195905296951 264.6169067280897L643.8624163992276 264.6169067280897L643.8624163992276 279.9565079634017L582.1298748424842 279.9565079634017L582.1298748424842 327.4142986520124L638.6820632615988 327.4142986520124L638.6820632615988 342.7251201476709L582.1298748424842 342.7251201476709L582.1298748424842 394.32719334638466L644.8984870267534 394.32719334638466L644.8984870267534 409.66679458169665L564.9195905296951 409.66679458169665ZM757.4272690719129 409.66679458169665L740.8501390315006 409.66679458169665L740.8501390315006 350.6107688127281Q740.8501390315006 334.43655512746477 736.1878212076347 326.26310906587264Q731.5255033837688 318.0896630042805 719.0926558534595 318.0896630042805L719.0926558534595 318.0896630042805Q708.0987953058251 318.0896630042805 700.9614198717587 323.98950963324666Q693.7952646980389 329.8893562622128 690.9172907326895 338.8110755547958L690.9172907326895 338.8110755547958L690.9172907326895 409.66679458169665L674.3401606922773 409.66679458169665L674.3401606922773 306.05973182912027L685.9383957726351 306.05973182912027L689.0466076552125 318.69403753700385L689.8812201051637 318.69403753700385Q694.8313353255646 312.0746974167004 703.2350193043847 307.8152959479834Q711.6387032832048 303.5846742189198 723.2369383635627 303.5846742189198L723.2369383635627 303.5846742189198Q731.7269615613432 303.5846742189198 738.1448435040722 305.5416965153574Q744.5627254468013 307.4987188117949 748.8221269155183 312.4776137718493Q753.0815283842353 317.4565087319037 755.2400088582474 325.86019271072377Q757.4272690719129 334.23509694989036 757.4272690719129 347.0996405750019L757.4272690719129 347.0996405750019L757.4272690719129 409.66679458169665ZM857.0915074919606 389.34829838633027L863.3079312571152 401.37822956149057Q857.0915074919606 406.3571245215449 847.6517528856148 409.2638782265477Q838.2407780189224 412.1418521918971 827.6786135660903 412.1418521918971L827.6786135660903 412.1418521918971Q815.8501405685046 412.1418521918971 807.1586591931496 408.3141468179825Q798.4383980781411 404.48644144406785 792.8551285853632 397.3490660100015Q787.2718590925855 390.1829108362816 784.5665635651571 380.2539006558263Q781.8612680377288 370.2961107357176 781.8612680377288 357.86326320540843L781.8612680377288 357.86326320540843Q781.8612680377288 331.3283432448875 793.6897410353146 317.4565087319037Q805.4894342932469 303.5846742189198 827.4483756488623 303.5846742189198L827.4483756488623 303.5846742189198Q834.4994118639684 303.5846742189198 841.5504480790742 305.13878016020846Q848.6014842941801 306.6928861014971 854.1847537869578 311.0386267891746Q859.796803019389 315.38436747685216 863.3079312571152 323.3563553608698Q866.8190594948414 331.3283432448875 866.8190594948414 344.39434504757355L866.8190594948414 344.39434504757355Q866.8190594948414 351.24392308510494 865.5815306897412 359.5324881053111L865.5815306897412 359.5324881053111L799.0715523505179 359.5324881053111Q799.0715523505179 368.626885835815 800.9422354279949 375.67792205092087Q802.812918505472 382.7289582660268 806.7269630983471 387.59273426746716Q810.6697874308757 392.45651026890755 817.0013301546443 395.04668683772195Q823.3040931387593 397.6368634065364 832.4272706089167 397.6368634065364L832.4272706089167 397.6368634065364Q839.4783068240226 397.6368634065364 846.5293430391285 395.16180579633595Q853.5803792542345 392.68674818613556 857.0915074919606 389.34829838633027L857.0915074919606 389.34829838633027ZM827.6786135660903 318.0896630042805L827.6786135660903 318.0896630042805Q815.4472242133556 318.0896630042805 808.0796108620614 324.50754494700954Q800.7407772504205 330.92542688973856 799.2730105280923 346.46648630262507L799.2730105280923 346.46648630262507L850.6736255492316 346.46648630262507Q850.6736255492316 330.72396871216415 844.6586599616514 324.3924259883956Q838.6436943740714 318.0896630042805 827.6786135660903 318.0896630042805ZM911.3700964784493 264.6169067280897L911.3700964784493 384.16794524870147Q911.3700964784493 391.4204396413818 913.8739338283033 394.52865152395907Q916.3489914385036 397.6368634065364 920.9249700434091 397.6368634065364L920.9249700434091 397.6368634065364Q923.6014858311839 397.6368634065364 926.7096977137612 397.2339470513875Q929.8179095963385 396.8310306962386 933.7607339288671 395.3632639739104L933.7607339288671 395.3632639739104L935.6314170063442 408.4292657765965Q932.3217469461924 410.0697109368456 926.3931205775727 411.10578156437134Q920.4932739486067 412.1418521918971 916.1475332609291 412.1418521918971L916.1475332609291 412.1418521918971Q906.8228976131973 412.1418521918971 900.8079320256172 406.8751598353078Q894.792966438037 401.579687739065 894.792966438037 388.9453820311814L894.792966438037 388.9453820311814L894.792966438037 264.6169067280897L911.3700964784493 264.6169067280897ZM1020.5892084634568 372.77116834591806L1020.5892084634568 372.77116834591806Q1020.5892084634568 364.079686970563 1015.408855325828 358.5827566967458Q1010.2285021881992 353.08582642292856 1002.457972481756 348.855204693865Q994.6874427753128 344.59580322514796 985.5642653051552 340.88321680984734Q976.4410878349979 337.1418506548932 968.6705581285546 331.8463785586504Q960.9000284221115 326.5796862020611 955.7196752844827 318.80915649561786Q950.5393221468539 311.0386267891746 950.5393221468539 299.00869561401436L950.5393221468539 299.00869561401436Q950.5393221468539 282.0286492184532 962.3677951444397 272.0708592983445Q974.1674884023719 262.14184911788925 995.9249715804131 262.14184911788925L995.9249715804131 262.14184911788925Q1008.5592772882967 262.14184911788925 1018.9199835635543 263.9837524557129Q1029.280689838812 265.8544355331899 1035.0941972488176 268.76118923819274L1035.0941972488176 268.76118923819274L1029.9138441111886 283.8993322959303Q1025.1364073287089 281.5969531236508 1015.926890639591 279.5248118685993Q1006.6885942108195 277.45267061354775 995.0903591304617 277.45267061354775L995.0903591304617 277.45267061354775Q981.4199827950522 277.45267061354775 974.5704047575209 283.58275515974185Q967.749606459643 289.68405996628246 967.749606459643 297.9726249864886L967.749606459643 297.9726249864886Q967.749606459643 306.05973182912027 972.9299595972716 311.44154314432353Q978.1103127349005 316.8233544595268 985.8808424413437 321.08275592824384Q993.651372147787 325.3421573969609 1002.7745496179443 329.4864399070639Q1011.8689473484483 333.63072241716696 1019.6394770548916 339.09887295133075Q1027.4100067613347 344.59580322514796 1032.5903598989637 352.2799937126307Q1037.7707130365925 359.93540446045995 1037.7707130365925 371.3321813632434L1037.7707130365925 371.3321813632434Q1037.7707130365925 380.65681701097526 1034.4610429764407 388.11076958123004Q1031.151372916289 395.56472215148483 1024.7334909735598 400.97531320634164Q1018.315609030831 406.3571245215449 1009.1924315606735 409.2638782265477Q1000.0692540905161 412.1418521918971 988.4710190101582 412.1418521918971L988.4710190101582 412.1418521918971Q972.9299595972716 412.1418521918971 962.7707114995885 409.7819135403106Q952.6114634019054 407.39319514907066 947.0281939091276 404.48644144406785L947.0281939091276 404.48644144406785L952.8129215794798 388.9453820311814Q957.5903583619597 391.6506775586098 966.9149940096917 394.2408541274242Q976.2396296574235 396.8310306962386 987.8378647377813 396.8310306962386L987.8378647377813 396.8310306962386Q994.6874427753128 396.8310306962386 1000.7024083628928 395.47838293252437Q1006.6885942108195 394.1257351688102 1011.0631146381504 391.13264224484686Q1015.408855325828 388.11076958123004 1017.9990318946425 383.56357071597813Q1020.5892084634568 378.9875921110727 1020.5892084634568 372.77116834591806Z " fill="#f8f7fd" transform="matrix(0.8431534846055531,0,0,0.8431534846055531,0,15.737668412829976)"/></g></svg>